<?xml version="1.0" standalone="no"?>
<!DOCTYPE svg PUBLIC "-//W3C//DTD SVG 20010904//EN"
 "http://www.w3.org/TR/2001/REC-SVG-20010904/DTD/svg10.dtd">
<svg version="1.0" xmlns="http://www.w3.org/2000/svg"
 width="512.000000pt" height="512.000000pt" viewBox="0 0 512.000000 512.000000"
 preserveAspectRatio="xMidYMid meet">
<metadata>
Created by potrace 1.14, written by Peter Selinger 2001-2017
</metadata>
<g transform="translate(0.000000,512.000000) scale(0.100000,-0.100000)"
fill="#000000" stroke="none">
<path d="M380 4853 c-21 -8 -50 -43 -56 -67 -2 -12 -3 -195 -2 -407 3 -414 1
-399 55 -427 35 -19 745 -17 782 2 50 26 51 38 51 447 0 414 -1 423 -57 448
-25 12 -744 15 -773 4z"/>
<path d="M1580 4853 c-19 -8 -34 -23 -48 -50 -9 -15 -12 -133 -12 -403 0 -415
1 -424 57 -449 16 -7 148 -11 389 -11 396 0 408 2 432 55 9 19 12 133 12 406
0 414 -1 423 -57 448 -25 12 -744 15 -773 4z"/>
<path d="M2768 4843 c-14 -9 -31 -27 -37 -40 -7 -16 -11 -154 -11 -404 0 -412
1 -423 55 -447 19 -9 129 -12 391 -12 396 0 408 2 432 55 16 35 17 773 1 808
-25 56 -35 57 -436 57 -325 -1 -371 -2 -395 -17z"/>
<path d="M3980 4853 c-19 -8 -34 -23 -48 -50 -9 -15 -12 -133 -12 -403 0 -415
1 -424 57 -449 16 -7 148 -11 389 -11 396 0 408 2 432 55 16 35 17 773 1 808
-25 56 -35 57 -436 56 -202 0 -375 -3 -383 -6z"/>
<path d="M374 3629 c-11 -6 -28 -23 -37 -39 -15 -25 -17 -71 -17 -409 0 -252
4 -388 11 -404 25 -56 35 -57 434 -57 399 0 409 1 434 57 15 33 15 773 0 806
-25 56 -35 57 -436 56 -226 0 -376 -4 -389 -10z"/>
<path d="M1574 3629 c-11 -6 -28 -23 -37 -39 -15 -25 -17 -71 -17 -409 0 -252
4 -388 11 -404 25 -56 34 -57 441 -57 395 1 386 0 421 50 15 22 17 63 17 408
0 423 -1 430 -61 451 -42 14 -745 14 -775 0z"/>
<path d="M2774 3629 c-11 -6 -28 -23 -37 -39 -15 -25 -17 -71 -17 -410 0 -416
1 -424 57 -449 36 -16 763 -14 783 2 51 39 50 35 50 452 -1 424 1 412 -57 444
-28 14 -748 14 -779 0z"/>
<path d="M3974 3629 c-11 -6 -28 -23 -37 -39 -15 -25 -17 -71 -17 -410 0 -416
1 -424 57 -449 16 -7 148 -11 389 -11 398 0 408 1 433 57 7 16 11 152 11 404
0 420 -1 427 -61 448 -42 14 -745 14 -775 0z"/>
<path d="M374 2409 c-11 -6 -28 -23 -37 -39 -15 -25 -17 -71 -17 -410 0 -416
1 -424 57 -449 16 -7 148 -11 389 -11 396 0 408 2 432 55 9 19 12 134 12 413
-1 421 1 409 -57 441 -28 14 -748 14 -779 0z"/>
<path d="M1574 2409 c-11 -6 -28 -23 -37 -39 -15 -25 -17 -71 -17 -409 0 -252
4 -388 11 -404 25 -56 35 -57 434 -57 397 0 409 1 433 55 17 37 17 773 0 810
-24 54 -36 55 -435 54 -226 0 -376 -4 -389 -10z"/>
<path d="M2768 2403 c-14 -9 -31 -27 -37 -40 -7 -16 -11 -154 -11 -404 0 -414
1 -423 57 -448 33 -15 743 -15 776 0 56 25 57 34 57 448 0 252 -4 388 -11 404
-25 56 -35 57 -436 57 -325 -1 -371 -2 -395 -17z"/>
<path d="M374 1189 c-11 -6 -28 -23 -37 -39 -15 -25 -17 -71 -17 -409 0 -252
4 -388 11 -404 25 -56 35 -57 433 -57 241 0 373 4 389 11 56 25 57 34 57 448
0 273 -3 387 -12 406 -24 54 -36 55 -435 54 -226 0 -376 -4 -389 -10z"/>
<path d="M1574 1189 c-11 -6 -28 -23 -37 -39 -15 -25 -17 -71 -17 -409 0 -252
4 -388 11 -404 25 -56 35 -57 434 -57 382 0 391 1 427 44 16 19 17 54 18 408
0 279 -3 394 -12 413 -24 54 -36 55 -435 54 -226 0 -376 -4 -389 -10z"/>
</g>
</svg>
